<svg width="216" height="93" viewBox="0 0 216 93" fill="none" xmlns="http://www.w3.org/2000/svg">
<path d="M0.248 1.39999H14.328V91H0.248V1.39999ZM44.713 92.28C37.9717 92.28 32.809 90.36 29.225 86.52C25.7263 82.68 23.977 77.2613 23.977 70.264V22.136C23.977 15.1387 25.7263 9.72 29.225 5.88C32.809 2.04 37.9717 0.119995 44.713 0.119995C51.4543 0.119995 56.5743 2.04 60.073 5.88C63.657 9.72 65.449 15.1387 65.449 22.136V31.608H52.137V21.24C52.137 15.6933 49.7903 12.92 45.097 12.92C40.4037 12.92 38.057 15.6933 38.057 21.24V71.288C38.057 76.7493 40.4037 79.48 45.097 79.48C49.7903 79.48 52.137 76.7493 52.137 71.288V57.592H65.449V70.264C65.449 77.2613 63.657 82.68 60.073 86.52C56.5743 90.36 51.4543 92.28 44.713 92.28ZM84.753 1.39999H103.825L118.417 91H104.337L101.777 73.208V73.464H85.777L83.217 91H70.161L84.753 1.39999ZM100.113 61.304L93.841 17.016H93.585L87.441 61.304H100.113ZM125.248 1.39999H146.112C153.365 1.39999 158.656 3.10666 161.984 6.52C165.312 9.84799 166.976 15.0107 166.976 22.008V27.512C166.976 36.8133 163.904 42.7013 157.76 45.176V45.432C161.173 46.456 163.563 48.5467 164.928 51.704C166.379 54.8613 167.104 59.0853 167.104 64.376V80.12C167.104 82.68 167.189 84.7707 167.36 86.392C167.531 87.928 167.957 89.464 168.64 91H154.304C153.792 89.5493 153.451 88.184 153.28 86.904C153.109 85.624 153.024 83.32 153.024 79.992V63.608C153.024 59.512 152.341 56.6533 150.976 55.032C149.696 53.4107 147.435 52.6 144.192 52.6H139.328V91H125.248V1.39999ZM144.448 39.8C147.264 39.8 149.355 39.0747 150.72 37.624C152.171 36.1733 152.896 33.7413 152.896 30.328V23.416C152.896 20.1733 152.299 17.8267 151.104 16.376C149.995 14.9253 148.203 14.2 145.728 14.2H139.328V39.8H144.448ZM176.873 1.39999H215.273V14.2H190.953V37.88H210.281V50.68H190.953V78.2H215.273V91H176.873V1.39999Z" fill="#020953"/>
</svg>
