<svg width="36" height="30" viewBox="0 0 36 30" fill="none" xmlns="http://www.w3.org/2000/svg">
<path d="M24.1559 21.1559L18.1169 15.1169L12.0779 21.1559" stroke="#020953" stroke-width="1.50974" stroke-linecap="round" stroke-linejoin="round"/>
<path d="M18.1169 15.1169V28.7046" stroke="#020953" stroke-width="1.50974" stroke-linecap="round" stroke-linejoin="round"/>
<path d="M30.7836 24.7641C32.2561 23.9614 33.4194 22.6911 34.0898 21.1538C34.7601 19.6165 34.8995 17.8997 34.4858 16.2744C34.0721 14.6491 33.129 13.2079 31.8052 12.1781C30.4814 11.1484 28.8525 10.5888 27.1753 10.5877H25.2731C24.8161 8.82015 23.9644 7.1792 22.7819 5.78822C21.5995 4.39723 20.1171 3.2924 18.4462 2.55679C16.7753 1.82118 14.9594 1.47393 13.1349 1.54115C11.3105 1.60837 9.52507 2.08831 7.91283 2.94488C6.3006 3.80145 4.90352 5.01237 3.82664 6.4866C2.74976 7.96083 2.02109 9.66001 1.69543 11.4564C1.36976 13.2528 1.45557 15.0996 1.94639 16.858C2.43722 18.6165 3.3203 20.2408 4.52924 21.6088" stroke="#020953" stroke-width="1.50974" stroke-linecap="round" stroke-linejoin="round"/>
<path d="M24.1559 21.1559L18.1169 15.1169L12.0779 21.1559" stroke="#020953" stroke-width="1.50974" stroke-linecap="round" stroke-linejoin="round"/>
</svg>
